<?xml version="1.0" encoding="iso-8859-1"?>
<!-- Generator: Adobe Illustrator 19.0.0, SVG Export Plug-In . SVG Version: 6.00 Build 0)  -->
<svg version="1.1" id="Capa_1" xmlns="http://www.w3.org/2000/svg" xmlns:xlink="http://www.w3.org/1999/xlink" x="0px" y="0px"
	 viewBox="0 0 512 512" style="enable-background:new 0 0 512 512;" xml:space="preserve">
<path style="fill:#FFFFFF;" d="M421.993,49.998c0-21.374,16.766-38.83,37.864-39.94H50.008c-22.09,0-39.998,17.908-39.998,39.998
	v431.945c0,11.046,8.955,19.999,20,19.999l371.844-0.011c11.045,0,19.998-8.955,19.998-19.999V232.628l0.141-0.782L421.993,49.998
	L421.993,49.998z"/>
<rect x="64.587" y="256" style="fill:#A0E557;" width="96.046" height="95.996"/>
<rect x="64.007" y="64.007" style="fill:#FF5D5D;" width="303.988" height="127.995"/>
<path style="fill:#C9F3FF;" d="M501.99,298.99V49.998c0-22.09-17.908-39.998-39.998-39.998l0,0
	c-22.09,0-39.998,17.908-39.998,39.998v268.99h59.998C493.035,318.99,501.99,310.035,501.99,298.99z"/>
<path d="M461.991,0C461.217,0,50.008,0.059,50.008,0.059c-27.569,0-49.998,22.429-49.998,49.998v431.944
	c0,8.014,3.121,15.546,8.787,21.213c5.667,5.666,13.2,8.787,21.213,8.786l371.845-0.011c16.54-0.001,29.998-13.458,29.998-29.999
	V328.989h50.139c16.541,0,29.999-13.457,29.999-29.999V49.998C511.989,22.429,489.56,0,461.991,0z M411.852,481.99
	c0,5.514-4.486,10-10,10l-371.845,0.011c-2.671,0-5.182-1.04-7.07-2.929c-1.889-1.889-2.929-4.4-2.929-7.071V50.057
	c0-16.541,13.457-29.999,29.999-29.999h371.966c-6.265,8.352-9.981,18.72-9.981,29.94L411.852,481.99z M491.99,298.99
	c0,5.514-4.486,10-10,10h-49.998V49.998c0-15.937,12.495-29.007,28.202-29.94h1.656c0.277,0,0.548-0.019,0.819-0.041
	c16.228,0.362,29.321,13.667,29.321,29.981V298.99z"/>
<path d="M367.995,342.001H210.987c-5.523,0-10,4.478-10,10s4.477,10,10,10h157.008c5.523,0,10-4.478,10-10
	S373.518,342.001,367.995,342.001z"/>
<path d="M367.995,294.003H210.987c-5.523,0-10,4.478-10,10c0,5.522,4.477,10,10,10h157.008c5.523,0,10-4.478,10-10
	C377.995,298.48,373.518,294.003,367.995,294.003z"/>
<path d="M210.991,266.004c2.63,0,5.21-1.07,7.07-2.931c1.86-1.859,2.93-4.439,2.93-7.069c0-2.63-1.07-5.21-2.93-7.07
	c-1.86-1.86-4.44-2.93-7.07-2.93c-2.64,0-5.21,1.069-7.07,2.93c-1.87,1.86-2.93,4.43-2.93,7.07c0,2.63,1.06,5.21,2.93,7.069
	C205.781,264.933,208.351,266.004,210.991,266.004z"/>
<path d="M367.995,246.004H247.5c-5.523,0-10,4.478-10,10s4.477,10,10,10h120.495c5.523,0,10-4.478,10-10
	S373.518,246.004,367.995,246.004z"/>
<path d="M367.995,437.997H64.007c-5.523,0-10,4.478-10,10s4.477,10,10,10h303.988c5.523,0,10-4.478,10-10
	S373.518,437.997,367.995,437.997z"/>
<path d="M367.995,389.999H64.007c-5.523,0-10,4.478-10,10c0,5.522,4.477,10,10,10h303.988c5.523,0,10-4.478,10-10
	C377.995,394.477,373.518,389.999,367.995,389.999z"/>
<path d="M64.59,362h96.048c5.523,0,10-4.478,10-10v-95.996c0-5.522-4.477-10-10-10H64.59c-5.523,0-10,4.478-10,10V352
	C54.59,357.522,59.067,362,64.59,362z M74.59,266.004h76.049v75.997H74.59V266.004z"/>
<path d="M367.995,54.012H202.335c-5.523,0-10,4.478-10,10s4.477,10,10,10h155.661v107.996H74.007V74.011h25.666
	c5.523,0,10-4.478,10-10s-4.477-10-10-10H64.007c-5.523,0-10,4.478-10,10v127.995c0,5.522,4.477,10,10,10h303.988
	c5.523,0,10-4.478,10-10V64.012C377.995,58.489,373.518,54.012,367.995,54.012z"/>
<path d="M153.003,74.011c2.63,0,5.21-1.07,7.07-2.931c1.86-1.859,2.93-4.439,2.93-7.069c0-2.63-1.07-5.21-2.93-7.07
	s-4.44-2.93-7.07-2.93s-5.21,1.069-7.07,2.93c-1.86,1.86-2.93,4.44-2.93,7.07c0,2.63,1.07,5.21,2.93,7.069
	C147.794,72.94,150.373,74.011,153.003,74.011z"/>
<g>
</g>
<g>
</g>
<g>
</g>
<g>
</g>
<g>
</g>
<g>
</g>
<g>
</g>
<g>
</g>
<g>
</g>
<g>
</g>
<g>
</g>
<g>
</g>
<g>
</g>
<g>
</g>
<g>
</g>
</svg>
